<svg xmlns="http://www.w3.org/2000/svg" width="512" height="512" viewBox="0 0 512 512" version="1.1">
	<path d="M 268.675 3.250 C 267.932 5.038, 246.048 59.825, 220.045 125 L 172.768 243.500 165.634 243.549 C 155.507 243.619, 147.265 247.633, 141.184 255.458 C 138.939 258.346, 138.672 258.416, 129.693 258.458 C 122.201 258.492, 119.644 258.922, 115.873 260.780 C 105.469 265.906, 99.128 275.714, 98.673 287.383 L 98.418 293.930 92.352 299.420 C 88.215 303.164, 85.563 306.588, 84.015 310.187 C 81.950 314.987, 81.805 316.416, 82.408 325.982 C 82.981 335.078, 82.795 337.299, 81.035 342.407 C 74.245 362.114, 84.585 380.797, 104.140 384.153 C 110.364 385.221, 114 387.174, 114 389.448 C 114 390.075, 111.975 395.625, 109.500 401.782 C 107.025 407.939, 105 413.822, 105 414.854 C 105 417.818, 108.852 422, 111.582 422 C 115.001 422, 116.901 419.387, 121.591 408.231 C 125.281 399.455, 125.919 398.528, 128.091 398.790 C 129.416 398.950, 133.762 399.162, 137.750 399.263 C 141.738 399.363, 145 399.507, 145 399.584 C 145 399.661, 143.650 402.701, 142 406.340 C 140.350 409.979, 139 413.805, 139 414.843 C 139 417.695, 142.849 422, 145.398 422 C 148.775 422, 151.258 418.650, 157 406.344 L 162.205 395.188 165.836 396.705 C 167.929 397.579, 172.485 398.222, 176.588 398.222 C 184.825 398.222, 190.221 396.219, 196.736 390.742 L 200.972 387.182 205.997 389.091 C 212.750 391.657, 223.996 391.639, 229.690 389.054 C 235.662 386.342, 242.227 379.921, 244.933 374.143 L 247.258 369.180 251.379 370.730 C 253.645 371.582, 258.674 372.290, 262.554 372.303 C 268.661 372.323, 270.451 371.877, 275.880 368.983 C 285.170 364.032, 290.208 357.300, 292.414 346.890 C 292.919 344.510, 293.496 344.233, 298.970 343.736 C 306.545 343.050, 313.288 339.809, 318.673 334.268 C 322.872 329.948, 327 321.180, 327 316.581 C 327 314.618, 327.771 314.045, 331.750 313.053 C 346.451 309.386, 355.427 297.515, 355.331 281.865 L 355.290 275.230 358.895 274.149 C 365.049 272.305, 371.443 267.547, 374.686 262.399 C 379.322 255.037, 380.357 250.784, 379.672 241.900 L 379.074 234.147 383.453 231.580 C 389.202 228.211, 394.452 221.964, 396.634 215.897 C 397.601 213.210, 399.091 210.802, 399.946 210.547 C 400.801 210.292, 406.418 209.566, 412.429 208.934 C 430.384 207.046, 435.650 204.172, 447.720 189.673 C 457.613 177.790, 471 157.516, 471 154.415 C 471 151.183, 467.641 147.997, 464.250 148.014 C 462.738 148.022, 453.850 148.915, 444.500 150 C 435.150 151.085, 426.777 151.978, 425.893 151.986 C 424.510 151.998, 424.187 149.679, 423.565 135.288 C 423.169 126.097, 422.416 117.777, 421.893 116.800 C 420.624 114.429, 416.435 113.481, 413.379 114.873 C 412.018 115.493, 403.120 121.113, 393.604 127.361 C 374.649 139.809, 370.107 144.342, 367.495 153.423 C 366.201 157.919, 364.073 170.365, 364.020 173.750 C 364.009 174.438, 362.988 175.004, 361.750 175.010 C 357.559 175.028, 349.471 179.658, 345.245 184.459 C 341.733 188.449, 337 197.898, 337 200.920 C 337 201.385, 333.063 201.723, 328.250 201.671 C 317.467 201.556, 311.947 203.865, 304.500 211.606 L 299.500 216.804 292.500 216.303 C 280.089 215.414, 269.174 221.406, 263.515 232.214 L 260.734 237.525 253.617 237.173 C 248.949 236.942, 244.965 237.353, 242.039 238.366 C 239.586 239.216, 237.453 239.786, 237.299 239.633 C 237.146 239.479, 249.434 213.512, 264.607 181.927 C 279.779 150.342, 305.250 97.275, 321.208 64 C 337.166 30.725, 350.638 2.713, 351.146 1.750 C 352.001 0.132, 351.222 0.001, 340.785 0.019 L 329.500 0.039 299.500 65.153 C 283 100.966, 257.109 157.095, 241.964 189.884 L 214.427 249.500 207.711 250.080 C 203.849 250.414, 198.856 251.662, 195.963 253.018 L 190.930 255.375 188.890 253.335 L 186.850 251.295 238.562 127.397 C 267.003 59.254, 290.489 2.712, 290.753 1.750 C 291.188 0.163, 290.245 0, 280.630 0 L 270.027 0 268.675 3.250" stroke="none" fill="black" fill-rule="evenodd"/>
</svg>